<svg xmlns="http://www.w3.org/2000/svg" xmlns:xlink="http://www.w3.org/1999/xlink" version="1.1" x="0px" y="0px" viewBox="0 0 100 125" enable-background="new 0 0 100 100" xml:space="preserve"><path d="M50,36.908c-7.219,0-13.092,5.873-13.092,13.092c0,7.219,5.873,13.092,13.092,13.092S63.092,57.219,63.092,50  C63.092,42.781,57.219,36.908,50,36.908z M50,60.092c-5.564,0-10.092-4.527-10.092-10.092c0-5.564,4.527-10.092,10.092-10.092  S60.092,44.435,60.092,50C60.092,55.564,55.564,60.092,50,60.092z"/><path d="M49.998,14.209c-19.764,0-35.787,16.023-35.787,35.792c0,19.764,16.023,35.79,35.787,35.79  c19.77,0,35.791-16.025,35.791-35.79C85.789,30.232,69.768,14.209,49.998,14.209z M65.073,79.68l-8.395-16.821  c-0.836,0.435-1.719,0.789-2.64,1.057l7.098,17.456c-3.483,1.238-7.23,1.92-11.139,1.92c-2.459,0-4.853-0.274-7.16-0.781  l4.25-18.306c-6.608-1.349-11.583-7.197-11.583-14.203c0-5.026,2.559-9.452,6.442-12.053c-2.441-3.214-8.513-11.223-11.277-15.037  c2.056-1.47,4.28-2.719,6.648-3.696l7.11,17.401c0.777-0.324,1.59-0.576,2.429-0.762c-1.331-4.086-4.396-13.486-5.871-17.902  c2.868-0.805,5.888-1.245,9.013-1.245c3.843,0,7.529,0.659,10.964,1.856l-6.04,17.815c5.579,2.018,9.573,7.345,9.573,13.621  c0,4.23-1.824,8.027-4.717,10.677L71.293,75.56C69.385,77.149,67.307,78.543,65.073,79.68z"/><path d="M50,43.221c-3.738,0-6.779,3.041-6.779,6.779s3.041,6.779,6.779,6.779c3.737,0,6.778-3.041,6.778-6.779  S53.737,43.221,50,43.221z M50,54.778c-2.635,0-4.779-2.144-4.779-4.779s2.144-4.779,4.779-4.779c2.635,0,4.778,2.144,4.778,4.779  S52.635,54.778,50,54.778z"/><text x="0" y="115" fill="#000000" font-size="5px" font-weight="bold" font-family="'Helvetica Neue', Helvetica, Arial-Unicode, Arial, Sans-serif">Created by ohyeahicon</text><text x="0" y="120" fill="#000000" font-size="5px" font-weight="bold" font-family="'Helvetica Neue', Helvetica, Arial-Unicode, Arial, Sans-serif">from the Noun Project</text></svg>